<svg width="280" height="280" viewBox="0 0 280 280" fill="none" xmlns="http://www.w3.org/2000/svg">
<path d="M180.597 54.6061C180.597 54.6061 150.648 92.5417 102.729 69.9134C54.8104 47.285 6.89143 108.515 48.1549 145.785C89.4184 183.055 49.039 203.535 77.0718 226.376C108.933 252.337 136.672 199.694 161.962 211.673C217.779 238.113 259.131 227.646 249.813 197.031C233.457 143.291 212.543 139.795 228.516 111.842C244.489 83.8897 209.236 25.7693 180.597 54.6061Z" fill="#ECECEC"/>
<path d="M164.292 159.526L161.926 172.229L150.656 232.614L130.355 228.824L143.372 159.068L143.991 155.744L164.292 159.526Z" fill="#BEBEBE"/>
<path d="M214.288 129.148L207.288 166.676C207.267 166.786 207.225 166.891 207.164 166.985C207.103 167.079 207.024 167.16 206.932 167.223C206.84 167.286 206.736 167.33 206.626 167.354C206.517 167.377 206.404 167.378 206.294 167.357L107.949 149.015L119.524 86.9531L194.204 100.882C207.739 103.406 216.729 116.058 214.288 129.148Z" fill="#8F8F8F"/>
<path d="M140.53 116.553L133.584 153.79L81.9629 144.162L88.908 106.925C91.4651 93.2151 105.094 84.2558 119.349 86.9144C133.604 89.573 143.087 102.843 140.53 116.553Z" fill="#8F8F8F"/>
<path d="M164.562 133.961C160.757 133.251 158.248 129.554 158.964 125.715C159.68 121.875 163.354 119.331 167.158 120.041C168.37 120.268 169.501 120.813 170.435 121.62C171.369 122.427 172.072 123.466 172.474 124.633L220.526 133.595L219.228 140.555L171.176 131.593C170.38 132.537 169.35 133.253 168.188 133.669C167.026 134.085 165.775 134.185 164.562 133.961Z" fill="#BEBEBE"/>
<path d="M138.816 117.238L132.049 153.518L83.4199 144.448L90.1871 108.168C92.6784 94.8098 105.585 86.0111 119.013 88.5157C132.442 91.0203 141.307 103.88 138.816 117.238Z" fill="#BEBEBE"/>
<path d="M165.923 130.444C167.878 130.444 169.463 128.859 169.463 126.903C169.463 124.948 167.878 123.363 165.923 123.363C163.968 123.363 162.383 124.948 162.383 126.903C162.383 128.859 163.968 130.444 165.923 130.444Z" fill="white"/>
<path d="M221.08 133.569L216.835 156.327C216.817 156.425 216.761 156.512 216.678 156.568C216.596 156.625 216.495 156.646 216.397 156.628L205.239 154.547C205.22 154.543 205.203 154.532 205.191 154.516C205.18 154.499 205.176 154.479 205.18 154.46L209.48 131.405C209.483 131.386 209.494 131.369 209.511 131.358C209.527 131.347 209.547 131.342 209.566 131.346L221.021 133.482C221.04 133.486 221.057 133.497 221.068 133.513C221.08 133.53 221.084 133.55 221.08 133.569Z" fill="#8F8F8F"/>
<path d="M99.5128 131.429C99.9827 134.886 103.776 138.994 103.776 138.994C97.9961 139.404 94.8661 136.135 93.5193 134.149C91.8542 134.63 90.1428 134.934 88.4138 135.055C76.5487 135.896 66.3346 128.15 65.5969 117.745C64.8592 107.339 73.8787 98.2295 85.7439 97.3886C97.609 96.5478 107.822 104.294 108.56 114.699C109.04 121.468 105.388 127.689 99.5128 131.429Z" fill="#8F8F8F"/>
<path d="M133.633 153.813C133.096 155.173 123.27 195.688 91.4738 189.758C56.6069 183.855 81.8269 144.15 81.8269 144.15L133.633 153.813Z" fill="#8F8F8F"/>
<path d="M87.079 119.791C88.7083 119.791 90.0291 118.47 90.0291 116.841C90.0291 115.211 88.7083 113.891 87.079 113.891C85.4497 113.891 84.1289 115.211 84.1289 116.841C84.1289 118.47 85.4497 119.791 87.079 119.791Z" fill="#ECECEC"/>
<path d="M73.8702 118.504C75.5093 118.504 76.8381 117.175 76.8381 115.536C76.8381 113.897 75.5093 112.568 73.8702 112.568C72.2311 112.568 70.9023 113.897 70.9023 115.536C70.9023 117.175 72.2311 118.504 73.8702 118.504Z" fill="#ECECEC"/>
<path d="M100.159 121.047C101.798 121.047 103.127 119.718 103.127 118.079C103.127 116.44 101.798 115.111 100.159 115.111C98.5202 115.111 97.1914 116.44 97.1914 118.079C97.1914 119.718 98.5202 121.047 100.159 121.047Z" fill="#ECECEC"/>
<path d="M164.291 159.526L161.925 172.229L143.371 159.068L143.99 155.744L164.291 159.526Z" fill="#8F8F8F"/>
</svg>
