<svg width="280" height="280" viewBox="0 0 280 280" fill="none" xmlns="http://www.w3.org/2000/svg">
<g opacity="0.8">
<path d="M52.664 127.03C52.664 127.03 91.4349 125.477 99.8133 61.7463C107.254 5.14696 172.632 30.9089 191.53 53.4708C216.011 82.6977 202.961 132.974 234.63 139.326C266.299 145.677 245.619 216.293 197.547 209.534C137.746 201.126 152.215 236.07 134.263 250.86C121.38 261.475 68.5523 251.257 66.7917 212.723C65.3101 180.298 51.6323 180.401 41.9375 176.724C27.9553 171.421 19.1449 133.018 52.664 127.03Z" fill="#EFEFEF"/>
<path d="M184.462 197.807L146.371 160.168L138.828 167.801L176.92 205.44L184.462 197.807Z" fill="#B4B4B4"/>
<path d="M199.014 207.92L169.379 178.637C169.214 178.474 168.948 178.476 168.785 178.641L157.568 189.992C157.405 190.157 157.407 190.423 157.572 190.586L187.207 219.869C187.372 220.032 187.638 220.031 187.801 219.866L199.018 208.514C199.181 208.349 199.179 208.083 199.014 207.92Z" fill="#7A7A7A"/>
<path d="M112.612 179.098C138.817 179.098 160.061 157.854 160.061 131.649C160.061 105.443 138.817 84.1992 112.612 84.1992C86.406 84.1992 65.1621 105.443 65.1621 131.649C65.1621 157.854 86.406 179.098 112.612 179.098Z" fill="#7A7A7A"/>
<path d="M112.612 171.356C134.541 171.356 152.319 153.578 152.319 131.649C152.319 109.719 134.541 91.9414 112.612 91.9414C90.6818 91.9414 72.9043 109.719 72.9043 131.649C72.9043 153.578 90.6818 171.356 112.612 171.356Z" fill="#EAEAEA"/>
<g clip-path="url(#clip0)">
<path d="M199.115 107.495L196.41 96.6965C196.203 95.8692 195.686 95.2075 194.982 94.8678L182.795 88.9908C181.333 88.2858 179.445 89.1443 178.599 90.8987L167.832 113.226C166.986 114.981 167.49 116.993 168.951 117.698L187.558 126.67C189.02 127.375 190.908 126.517 191.754 124.763L198.807 110.138C199.214 109.293 199.327 108.345 199.115 107.495ZM182.377 96.6519L191.68 101.138L190.142 104.328L180.838 99.8416L182.377 96.6519ZM187.976 119.009L174.686 112.6L176.224 109.411L189.514 115.82L187.976 119.009ZM191.052 112.63L177.762 106.221L179.3 103.031L192.591 109.44L191.052 112.63Z" fill="#797979"/>
</g>
<g clip-path="url(#clip1)">
<path d="M113.995 203.127L106.517 200.377C105.944 200.166 105.345 200.205 104.86 200.485L96.4736 205.327C95.4676 205.908 95.2148 207.371 95.9118 208.578L104.782 223.942C105.479 225.149 106.873 225.662 107.879 225.081L120.683 217.689C121.689 217.108 121.941 215.645 121.244 214.438L115.434 204.374C115.098 203.793 114.583 203.344 113.995 203.127ZM100.837 208.661L107.239 204.964L108.506 207.159L102.104 210.856L100.837 208.661ZM116.319 214.355L107.173 219.635L105.906 217.44L115.052 212.16L116.319 214.355ZM113.784 209.965L104.639 215.245L103.372 213.05L112.517 207.77L113.784 209.965Z" fill="#797979"/>
</g>
<path d="M110.82 137.527L114.931 137.092L114.897 136.771C114.645 134.156 115.37 132.87 117.252 131.425C119.379 129.829 120.603 127.83 120.304 125.008C119.863 120.842 116.34 118.573 111.625 119.073C107.305 119.53 104.052 122.292 104.425 126.988L108.819 126.523C108.685 124.194 110.246 122.907 111.987 122.723C113.875 122.523 115.527 123.619 115.731 125.554C115.914 127.28 114.891 128.584 113.497 129.679C111.456 131.266 110.341 132.767 110.786 137.206L110.82 137.527ZM113.795 144.988C115.251 144.834 116.37 143.494 116.223 141.989C116.054 140.512 114.68 139.436 113.223 139.59C111.717 139.75 110.623 141.087 110.792 142.564C110.939 144.069 112.289 145.148 113.795 144.988Z" fill="#797979"/>
<path d="M199.834 164.531L201.785 165.213L201.838 165.061C202.283 163.825 202.886 163.399 204.045 163.149C205.348 162.882 206.329 162.241 206.797 160.901C207.489 158.924 206.382 157.145 204.144 156.363C202.093 155.645 200.033 156.198 199.197 158.4L201.282 159.13C201.72 158.049 202.701 157.801 203.527 158.09C204.423 158.403 204.935 159.252 204.614 160.17C204.327 160.989 203.586 161.36 202.722 161.557C201.46 161.837 200.635 162.277 199.887 164.379L199.834 164.531ZM199.582 168.539C200.274 168.781 201.066 168.415 201.321 167.703C201.561 166.999 201.17 166.219 200.478 165.978C199.764 165.728 198.983 166.098 198.744 166.802C198.488 167.513 198.868 168.289 199.582 168.539Z" fill="#797979"/>
<path d="M118.652 60.4146L120.564 59.629L120.503 59.48C120.015 58.2602 120.182 57.5415 120.882 56.5838C121.679 55.5193 121.986 54.3883 121.447 53.0758C120.651 51.1387 118.642 50.5442 116.449 51.4454C114.44 52.2712 113.266 54.0531 114.104 56.2546L116.148 55.4146C115.756 54.3159 116.325 53.4793 117.135 53.1466C118.013 52.7856 118.959 53.08 119.329 53.9798C119.659 54.7822 119.351 55.5518 118.835 56.2728C118.079 57.3209 117.754 58.1977 118.591 60.2656L118.652 60.4146ZM121.127 63.578C121.804 63.2996 122.153 62.4997 121.871 61.7981C121.583 61.1127 120.772 60.7894 120.095 61.0678C119.395 61.3556 119.057 62.1508 119.346 62.8362C119.627 63.5378 120.426 63.8659 121.127 63.578Z" fill="#797979"/>
<path d="M50.4737 158.942L51.9199 158.345L51.8733 158.232C51.5028 157.31 51.629 156.765 52.158 156.04C52.7603 155.233 52.9914 154.377 52.5818 153.384C51.9772 151.918 50.4558 151.47 48.7968 152.155C47.2768 152.782 46.3904 154.132 47.0267 155.797L48.5728 155.16C48.2756 154.328 48.7053 153.694 49.3176 153.442C49.9821 153.168 50.6987 153.39 50.9795 154.07C51.23 154.677 50.9978 155.26 50.6082 155.807C50.0363 156.601 49.7919 157.265 50.4272 158.829L50.4737 158.942ZM52.3499 161.334C52.8623 161.123 53.1257 160.517 52.9118 159.986C52.6928 159.467 52.0788 159.223 51.5664 159.435C51.0366 159.653 50.7819 160.256 51.0009 160.774C51.2148 161.305 51.82 161.552 52.3499 161.334Z" fill="#797979"/>
</g>
<defs>
<clipPath id="clip0">
<rect width="35.4119" height="42.4942" fill="white" transform="translate(178.457 81.002) rotate(25.7445)"/>
</clipPath>
<clipPath id="clip1">
<rect width="25.3448" height="30.4137" fill="white" transform="translate(90 204.674) rotate(-30)"/>
</clipPath>
</defs>
</svg>
