<svg width="280" height="280" viewBox="0 0 280 280" fill="none" xmlns="http://www.w3.org/2000/svg">
<path d="M88.3722 71.0583C88.3722 71.0583 120.214 95.2208 168.62 50.0409C211.61 9.91692 246.712 73.2234 246.958 103.54C247.276 142.812 203.968 174.235 224.985 200.029C246.002 225.823 183.304 268.418 149.513 231.555C107.479 185.699 96.0908 222.957 72.131 222.957C54.935 222.957 19.6295 180.229 43.4709 148.441C63.5329 121.691 52.5915 112.814 47.2929 103.54C39.6499 90.1651 57.8013 53.8622 88.3722 71.0583Z" fill="#EFEFEF"/>
<path d="M135.766 83.7748C104.954 84.3272 80.2233 109.829 80.7764 140.766C81.3272 171.575 106.83 196.302 137.769 195.747C168.708 195.191 193.309 169.567 192.76 138.755C192.211 107.944 166.58 83.2215 135.766 83.7748ZM136.279 112.457C139.728 112.395 143.118 113.359 146.018 115.226C148.918 117.093 151.198 119.78 152.569 122.944C153.94 126.109 154.34 129.61 153.719 133.003C153.097 136.396 151.482 139.528 149.078 142.001C146.674 144.475 143.589 146.179 140.215 146.897C136.841 147.615 133.33 147.315 130.127 146.036C126.924 144.756 124.173 142.553 122.224 139.708C120.274 136.863 119.214 133.502 119.177 130.053C119.007 120.535 126.758 112.628 136.279 112.457ZM137.563 184.224C127.331 184.423 117.349 181.059 109.325 174.708C117.185 165.797 126.868 160.736 137.139 160.552C147.411 160.368 157.391 164.949 165.442 173.7C157.65 180.335 147.795 184.056 137.563 184.224Z" fill="#7A7A7A"/>
<path d="M207.976 172.688C207.565 173.897 207.027 175.059 206.37 176.154C202.083 183.326 193.236 186.783 185.008 183.979C180.466 182.429 176.726 179.139 174.608 174.832C172.491 170.525 172.171 165.554 173.718 161.011C173.796 160.781 173.882 160.549 173.968 160.325C177.446 151.308 187.455 146.575 196.685 149.721C199.44 150.655 201.928 152.243 203.934 154.349C204.594 155.039 205.197 155.781 205.737 156.568C207.344 158.893 208.384 161.563 208.773 164.362C209.161 167.162 208.888 170.013 207.976 172.688L207.976 172.688Z" fill="#FF9797"/>
<path d="M204.467 162.689L177.293 165.489C177.23 165.496 177.189 165.587 177.199 165.693L177.688 170.432C177.699 170.538 177.758 170.618 177.821 170.612L204.995 167.812C205.057 167.806 205.099 167.715 205.088 167.609L204.6 162.87C204.589 162.764 204.529 162.683 204.467 162.689Z" fill="white"/>
<path d="M199.018 204.57C192.411 201.575 184.577 204.499 181.57 211.132C178.574 217.738 181.499 225.571 188.133 228.579C194.767 231.586 202.586 228.623 205.582 222.016C208.577 215.41 205.625 207.565 199.018 204.57ZM196.23 210.72C196.969 211.055 197.592 211.602 198.02 212.292C198.448 212.982 198.662 213.784 198.634 214.595C198.605 215.406 198.337 216.191 197.862 216.85C197.387 217.508 196.727 218.011 195.966 218.294C195.205 218.577 194.377 218.628 193.588 218.44C192.798 218.252 192.081 217.833 191.53 217.238C190.978 216.642 190.616 215.896 190.489 215.094C190.361 214.292 190.475 213.47 190.816 212.733C191.741 210.692 194.188 209.794 196.23 210.72ZM189.253 226.108C187.058 225.117 185.275 223.393 184.211 221.232C186.782 220.132 189.352 220.034 191.554 221.032C193.757 222.031 195.416 224.013 196.243 226.687C193.917 227.31 191.446 227.106 189.253 226.108Z" fill="#797979"/>
<path d="M36.3023 158.221C30.9095 161.369 29.062 168.326 32.2223 173.741C35.3698 179.133 42.3263 180.98 47.7411 177.819C53.1559 174.658 54.9685 167.692 51.8212 162.299C48.6738 156.907 41.6951 155.073 36.3023 158.221ZM39.2323 163.241C39.836 162.889 40.5306 162.724 41.2282 162.767C41.9258 162.81 42.5948 163.059 43.1505 163.483C43.7062 163.907 44.1236 164.486 44.3495 165.147C44.5755 165.809 44.6 166.522 44.4198 167.198C44.2397 167.873 43.863 168.48 43.3377 168.941C42.8123 169.402 42.1619 169.696 41.4689 169.787C40.7759 169.878 40.0716 169.761 39.4452 169.451C38.8189 169.141 38.2988 168.652 37.9508 168.045C36.9784 166.379 37.5661 164.214 39.2323 163.241ZM46.5639 175.802C44.7748 176.85 42.6769 177.244 40.6297 176.915C41.1371 174.562 42.348 172.709 44.1457 171.659C45.9434 170.61 48.1613 170.432 50.4509 171.182C49.7303 173.126 48.3562 174.76 46.5639 175.802Z" fill="#797979"/>
<path d="M73.2597 98.0815C73.4141 97.6018 73.3764 97.0809 73.1545 96.6284C72.9326 96.1759 72.5438 95.8271 72.0699 95.6555L54.3522 88.8387C53.2938 88.4315 52.1178 88.9517 51.7642 89.9824L51.272 91.4194C50.919 92.4504 51.5312 93.5776 52.619 93.8989L70.8288 99.2787C71.3102 99.4308 71.8317 99.3912 72.2846 99.1681C72.7375 98.9451 73.0868 98.5558 73.2597 98.0815Z" fill="#797979"/>
<path d="M78.4207 90.5757C78.5262 90.4523 78.6065 90.3093 78.6568 90.1549C78.7071 90.0005 78.7265 89.8377 78.7139 89.6758C78.7013 89.5139 78.657 89.3561 78.5834 89.2114C78.5098 89.0666 78.4084 88.9378 78.285 88.8322L69.0456 80.6217C68.7838 80.386 68.4392 80.2638 68.0874 80.2819C67.7357 80.2999 67.4054 80.4568 67.1691 80.7181L66.5119 81.475C66.4006 81.6055 66.3176 81.7577 66.2682 81.9219C66.2187 82.0861 66.2038 82.2588 66.2244 82.4291C66.245 82.5994 66.3007 82.7635 66.3879 82.9112C66.4752 83.0588 66.5921 83.1868 66.7313 83.287L76.628 90.7405C76.8929 90.9433 77.2244 91.039 77.5565 91.0084C77.8887 90.9779 78.1972 90.8234 78.4207 90.5757Z" fill="#797979"/>
<path d="M86.6723 88.7988C87.6951 88.5299 88.233 87.3076 87.8921 86.0277L81.8398 63.3037C81.4781 61.9463 80.2729 61.0526 79.1878 61.3382L77.6761 61.7359C76.5915 62.021 76.0641 63.3703 76.516 64.704L84.0803 87.0314C84.5065 88.2875 85.6498 89.0677 86.6723 88.7988Z" fill="#797979"/>
<path d="M195.55 73.281L207.845 70.3277L209.752 103.348L202.05 104.366L195.55 73.281ZM208.405 120.793C206.752 121.011 205.238 120.614 203.865 119.6C202.529 118.537 201.751 117.179 201.533 115.525C201.314 113.872 201.712 112.358 202.726 110.984C203.783 109.605 205.139 108.806 206.792 108.587C208.446 108.369 209.94 108.791 211.276 109.854C212.656 110.911 213.455 112.267 213.673 113.92C213.892 115.574 213.473 117.09 212.415 118.47C211.396 119.8 210.059 120.574 208.405 120.793Z" fill="#797979"/>
</svg>
