<svg width="20" height="24" viewBox="0 0 20 24" fill="none" xmlns="http://www.w3.org/2000/svg">
<path d="M19.3317 16.5584L13.225 22.6651C12.705 23.1851 11.8517 23.1851 11.3317 22.6651C10.8117 22.1451 10.8117 21.2917 11.3317 20.7717L15.1717 16.9451H1.61165C0.87832 16.9451 0.27832 16.3451 0.27832 15.6117V2.2784C0.27832 1.54507 0.87832 0.945068 1.61165 0.945068C2.34499 0.945068 2.94499 1.54507 2.94499 2.2784V14.2784H15.1717L11.3317 10.4517C10.8117 9.93174 10.8117 9.0784 11.3317 8.5584C11.8517 8.0384 12.705 8.0384 13.225 8.5584L19.3317 14.6651C19.8517 15.1851 19.8517 16.0384 19.3317 16.5584Z" fill="#666666"/>
</svg>
