<svg xmlns="http://www.w3.org/2000/svg" width="137.314" height="182.281" viewBox="0 0 137.314 182.281"><defs><style>.a{fill:#ffcc23;}.b{fill:#e14c4d;}.c{fill:#0f2660;}</style></defs><g transform="translate(0)"><path class="a" d="M88.489,44.406,6.79,89.674h0A50.7,50.7,0,0,1,32.916,45.311L114.615,0h0A50.785,50.785,0,0,1,88.489,44.406Z" transform="translate(22.484)"/><path class="b" d="M88.489,54.974,6.79,100.414h0A50.7,50.7,0,0,1,32.916,56.051L114.83,10.74h0A50.788,50.788,0,0,1,88.489,54.974Z" transform="translate(22.484 35.563)"/><path class="c" d="M88.489,65.853,6.79,111.121h0A50.74,50.74,0,0,1,32.916,66.8L114.83,21.49h0A50.788,50.788,0,0,1,88.489,65.853Z" transform="translate(22.484 71.159)"/><path class="a" d="M81.914,44.406,0,89.674H0A50.7,50.7,0,0,1,26.126,45.311L107.782,0h0A50.778,50.778,0,0,1,81.914,44.406Z" transform="translate(0)"/><path class="b" d="M81.914,54.974,0,100.414H0A50.7,50.7,0,0,1,26.126,56.051L107.782,10.74h0A50.791,50.791,0,0,1,81.914,54.974Z" transform="translate(0 35.563)"/><path class="c" d="M81.914,65.886,0,111.154H0a50.74,50.74,0,0,1,26.126-44.32L107.782,21.48h0A50.778,50.778,0,0,1,81.914,65.886Z" transform="translate(0 71.126)"/></g></svg>