<svg width="260" height="56" viewBox="0 0 260 56" fill="none" xmlns="http://www.w3.org/2000/svg">
<path d="M37.38 17.74L19.45 27.68C19.4496 25.6918 19.9818 23.7398 20.9912 22.0269C22.0007 20.314 23.4505 18.9028 25.19 17.94L43.11 8C43.1114 9.98719 42.5807 11.9385 41.5731 13.6513C40.5655 15.3641 39.1176 16.7759 37.38 17.74V17.74Z" fill="#FFCC23"/>
<path d="M37.38 27.87L19.45 37.87C19.4517 35.8822 19.9848 33.9311 20.994 32.2186C22.0032 30.506 23.4519 29.0945 25.19 28.13L43.19 18.19C43.1728 20.175 42.625 22.1193 41.6035 23.8213C40.5819 25.5234 39.1237 26.9212 37.38 27.87Z" fill="#E14C4D"/>
<path d="M37.38 38.07L19.45 48C19.4545 46.0141 19.9889 44.0655 20.9979 42.3551C22.0069 40.6446 23.4541 39.2345 25.19 38.27L43.19 28.33C43.1825 30.325 42.6393 32.2814 41.6173 33.9947C40.5952 35.708 39.1319 37.1155 37.38 38.07V38.07Z" fill="#0F2660"/>
<path d="M31 17.74L13 27.68C12.9986 25.6928 13.5293 23.7415 14.5369 22.0287C15.5445 20.3159 16.9924 18.9041 18.73 17.94L36.68 8C36.6863 9.98221 36.1632 11.9301 35.1646 13.6425C34.1661 15.3548 32.7283 16.7694 31 17.74Z" fill="#FFCC23"/>
<path d="M31 27.87L13 37.87C12.9973 35.8749 13.5304 33.9157 14.5436 32.1971C15.5568 30.4785 17.013 29.0635 18.76 28.1L36.68 18.16C36.6789 20.1367 36.1524 22.0776 35.1543 23.7838C34.1562 25.49 32.7225 26.9003 31 27.87V27.87Z" fill="#E14C4D"/>
<path d="M31 38.07L13.03 48C13.0325 46.0149 13.5649 44.0665 14.5722 42.356C15.5796 40.6455 17.0253 39.2349 18.76 38.27L36.68 28.27C36.695 30.262 36.176 32.2215 35.1771 33.945C34.1783 35.6684 32.7359 37.0928 31 38.07V38.07Z" fill="#0F2660"/>
<path d="M73.9389 17.7031C73.9389 20.8212 73.166 23.2164 71.6203 24.8887C70.7562 25.7581 69.7161 26.4326 68.5699 26.867C67.4236 27.3014 66.1977 27.4855 64.9744 27.4071C63.7496 27.4863 62.5219 27.3026 61.3739 26.8682C60.226 26.4338 59.1842 25.7589 58.3186 24.8887C56.7795 23.2197 56 20.8112 56 17.6831C56 14.5551 56.7795 12.1466 58.3286 10.4976C59.2015 9.63692 60.2468 8.97105 61.3958 8.54384C62.5448 8.11663 63.7713 7.93779 64.9944 8.01911C67.8926 8.01911 70.1013 8.8486 71.6403 10.5176C73.1794 12.1865 73.9389 14.575 73.9389 17.7031ZM60.1874 17.7031C60.0705 19.376 60.4906 21.0426 61.3867 22.4602C61.8101 22.9978 62.358 23.4243 62.983 23.7029C63.6081 23.9814 64.2916 24.1037 64.9744 24.0592C68.1525 24.0592 69.7515 21.9405 69.7515 17.7031C69.7515 13.4657 68.1625 11.3371 64.9944 11.3371C64.3093 11.2937 63.6238 11.4175 62.9971 11.6978C62.3704 11.9781 61.8211 12.4065 61.3967 12.9461C60.4977 14.3627 60.0741 16.0292 60.1874 17.7031V17.7031Z" fill="#1E345D"/>
<path d="M90.8584 14.1853C90.9122 15.0553 90.7685 15.9261 90.4379 16.7327C90.1073 17.5392 89.5985 18.2604 88.9496 18.8424C87.4 20.0049 85.4861 20.5755 83.5529 20.4514H81.834V27.1472H77.8365V8.30892H83.8328C85.6875 8.18157 87.5287 8.70459 89.0395 9.788C89.6598 10.3322 90.1465 11.0119 90.4619 11.7745C90.7773 12.537 90.913 13.3619 90.8584 14.1853V14.1853ZM81.864 17.1834H83.1832C84.1583 17.2559 85.1296 16.999 85.9415 16.4539C86.2495 16.1976 86.4925 15.872 86.6506 15.5037C86.8087 15.1355 86.8773 14.7351 86.8509 14.3352C86.8845 13.9548 86.8328 13.5718 86.6997 13.2139C86.5666 12.8561 86.3553 12.5324 86.0814 12.2665C85.3886 11.7616 84.5369 11.5239 83.6829 11.5969H81.834L81.864 17.1834Z" fill="#1E345D"/>
<path d="M105.259 27.1473H94.4562V8.30893H105.309V11.5869H98.4537V15.7243H104.83V19.0123H98.4537V23.8693H105.309L105.259 27.1473Z" fill="#1E345D"/>
<path d="M124.438 27.1473H119.88L115.443 20.0117L111.066 27.1373H106.789L113.035 17.4233L107.188 8.29893H111.596L115.653 15.0747L119.651 8.29893H123.958L118.042 17.6431L124.438 27.1473Z" fill="#1E345D"/>
<path d="M61.2068 44.6464C61.2365 45.09 61.1736 45.535 61.0222 45.9531C60.8708 46.3711 60.6342 46.7532 60.3273 47.0749C59.9794 47.3731 59.5762 47.5999 59.1406 47.7422C58.7051 47.8845 58.2458 47.9396 57.7889 47.9044H56V41.5084H57.9988C58.8701 41.4592 59.7254 41.7575 60.3773 42.3378C60.6654 42.6459 60.8876 43.0096 61.0303 43.4065C61.1729 43.8035 61.233 44.2254 61.2068 44.6464V44.6464ZM60.1075 44.6464C60.1075 43.1174 59.3879 42.3478 57.9588 42.3478H57.0493V46.995H57.7889C58.3291 47.0662 58.8756 46.9215 59.3098 46.5921C59.7439 46.2628 60.0305 45.7755 60.1075 45.236C60.1292 45.0535 60.1292 44.869 60.1075 44.6864V44.6464ZM62.5759 47.8644V41.4684H63.6253V47.8644H62.5759ZM67.9326 44.3966H70.2811V47.6146C69.9192 47.7317 69.5481 47.8186 69.1718 47.8744C68.7914 47.9312 68.4072 47.9579 68.0226 47.9544C67.6097 47.9791 67.1963 47.9152 66.8102 47.767C66.4241 47.6188 66.0741 47.3896 65.7839 47.0949C65.225 46.4133 64.9431 45.5463 64.9944 44.6664C64.9698 44.2239 65.0361 43.7811 65.189 43.3652C65.342 42.9492 65.5785 42.569 65.8839 42.2479C66.5526 41.6451 67.4332 41.3324 68.3324 41.3784C68.9853 41.3775 69.6314 41.5101 70.2312 41.7682L69.8614 42.6377C69.3745 42.4045 68.8422 42.2816 68.3024 42.2779C68.0025 42.2624 67.7027 42.3116 67.4234 42.4219C67.1441 42.5322 66.8918 42.7012 66.6834 42.9175C66.2693 43.4069 66.0583 44.0363 66.0937 44.6764C66.0447 45.3175 66.2332 45.9542 66.6234 46.4653C66.8226 46.6722 67.0641 46.8338 67.3315 46.939C67.5988 47.0442 67.8856 47.0906 68.1725 47.0749C68.534 47.0833 68.8954 47.0565 69.2518 46.995V45.336H67.9326V44.3966ZM71.8202 47.8644V41.4684H72.8196V47.8644H71.8202ZM76.7571 47.8644H75.7578V42.3678H73.839V41.4684H78.636V42.3678H76.7571V47.8644ZM83.5929 47.8644L82.9533 46.0955H80.4648L79.8352 47.8644H78.7359L81.1344 41.4484H82.2737L84.6622 47.8644H83.5929ZM82.6735 45.1861L82.0738 43.4472L81.894 42.8975C81.814 42.6476 81.764 42.4678 81.7341 42.3478C81.6453 42.7476 81.5318 43.1414 81.3943 43.5271L80.8146 45.1861H82.6735ZM85.5417 47.8644V41.4684H86.5411V46.995H89.2494V47.8944L85.5417 47.8644ZM95.5355 47.8644L93.6767 42.5277C93.6767 43.3172 93.7466 44.0668 93.7466 44.7563V47.8644H92.7472V41.4684H94.2263L96.0052 46.5552L97.8341 41.4684H99.3132V47.8644H98.3138V44.7364C98.3138 44.4265 98.3138 44.0068 98.3138 43.4971C98.3138 42.9874 98.3138 42.6776 98.3138 42.5777L96.4549 47.9044L95.5355 47.8644ZM105.01 47.8644L104.37 46.0955H101.922L101.292 47.8644H100.193L102.581 41.4484H103.72L106.119 47.8644H105.01ZM104.09 45.1861L103.491 43.4472L103.311 42.8975C103.231 42.6476 103.181 42.4678 103.151 42.3478C103.059 42.7477 102.942 43.1416 102.801 43.5271L102.231 45.1861H104.09ZM112.285 47.8644H111.006L107.858 42.7676V43.0574C107.858 43.5971 107.918 44.0568 107.918 44.5465V47.8644H106.978V41.4684H108.238L111.376 46.5452C111.376 46.4753 111.376 46.2254 111.376 45.8157C111.376 45.4059 111.376 45.0661 111.376 44.8163V41.5084H112.375L112.285 47.8644ZM118.991 41.4684V45.6058C118.998 46.0409 118.895 46.4708 118.691 46.855C118.484 47.2052 118.178 47.4866 117.812 47.6645C117.387 47.8778 116.918 47.9906 116.443 47.9943C115.768 48.0318 115.105 47.8061 114.594 47.3647C114.369 47.1383 114.195 46.8676 114.081 46.5699C113.968 46.2722 113.918 45.954 113.934 45.6358V41.5183H114.933V45.5159C114.895 45.9378 115.024 46.358 115.293 46.6851C115.448 46.8181 115.627 46.9192 115.821 46.9826C116.015 47.0461 116.219 47.0706 116.423 47.0549C117.422 47.0549 117.902 46.5352 117.902 45.4959V41.4984L118.991 41.4684ZM121.659 47.8644H120.66V41.4684H124.268V42.3578H121.689V44.3566H124.108V45.246H121.689L121.659 47.8644ZM129.365 47.8644L128.725 46.0955H126.236L125.617 47.8644H124.508L126.906 41.4484H128.045L130.434 47.9044L129.365 47.8644ZM128.435 45.226L127.835 43.4871L127.656 42.9375C127.576 42.6876 127.526 42.5077 127.496 42.3878C127.407 42.7875 127.293 43.1814 127.156 43.5671L126.576 45.226H128.435ZM134.032 42.3179C133.761 42.3045 133.492 42.3555 133.245 42.4667C132.998 42.5779 132.782 42.7461 132.613 42.9575C132.243 43.4664 132.063 44.0886 132.103 44.7164C132.049 45.3487 132.223 45.9794 132.593 46.4953C132.769 46.7009 132.991 46.8629 133.241 46.9687C133.49 47.0744 133.761 47.1211 134.032 47.1049C134.297 47.103 134.561 47.0763 134.821 47.0249L135.611 46.8151V47.7045C135.064 47.9047 134.484 48.003 133.902 47.9943C133.503 48.02 133.104 47.9571 132.732 47.8102C132.361 47.6634 132.026 47.4361 131.753 47.1449C131.204 46.4554 130.933 45.5855 130.994 44.7064C130.978 44.1185 131.094 43.5346 131.333 42.9974C131.542 42.5241 131.89 42.1263 132.333 41.8581C132.829 41.5781 133.392 41.4398 133.962 41.4584C134.589 41.4474 135.209 41.588 135.771 41.8681L135.391 42.7376C135.171 42.6377 134.941 42.5477 134.711 42.4678C134.465 42.3914 134.209 42.3543 133.952 42.3578L134.032 42.3179ZM139.208 47.9144H138.129V42.4078H136.24V41.5183H141.047V42.4078H139.168L139.208 47.9144ZM147.084 41.5183V45.6558C147.083 46.0892 146.973 46.5155 146.764 46.895C146.56 47.2482 146.253 47.5307 145.884 47.7045C145.457 47.9078 144.988 48.0071 144.515 47.9943C143.84 48.0329 143.177 47.807 142.666 47.3647C142.441 47.1388 142.265 46.8684 142.149 46.5708C142.034 46.2731 141.982 45.9547 141.997 45.6358V41.5183H143.056V45.5159C143.017 45.9378 143.147 46.358 143.416 46.6851C143.569 46.82 143.748 46.9223 143.943 46.9859C144.137 47.0494 144.342 47.0729 144.545 47.0549C145.545 47.0549 146.024 46.5452 146.024 45.5059V41.5084L147.084 41.5183ZM149.762 44.5165H150.421C150.792 44.5489 151.162 44.4537 151.471 44.2467C151.582 44.1466 151.67 44.0228 151.727 43.8844C151.784 43.746 151.809 43.5966 151.801 43.4472C151.814 43.2981 151.789 43.148 151.728 43.0115C151.667 42.8749 151.571 42.7565 151.451 42.6676C151.141 42.4798 150.784 42.3861 150.421 42.3978H149.732L149.762 44.5165ZM149.762 45.3859V47.9344H148.713V41.5383H150.511C151.159 41.4916 151.804 41.6565 152.35 42.008C152.553 42.177 152.713 42.3922 152.816 42.6357C152.918 42.8792 152.961 43.1438 152.94 43.4072C152.946 43.7864 152.828 44.1573 152.604 44.4637C152.381 44.7702 152.064 44.9956 151.701 45.1061L153.5 47.9344H152.31L150.781 45.3859H149.762ZM154.419 47.9044V41.5084H155.418V47.9044H154.419ZM162.484 47.9044H161.205L158.057 42.8075V43.0974C158.057 43.637 158.117 44.0967 158.117 44.5864V47.9044H157.167V41.5084H158.417L161.555 46.5752C161.555 46.5053 161.555 46.2654 161.555 45.8457C161.555 45.4259 161.555 45.0961 161.555 44.8463V41.5084H162.554L162.484 47.9044ZM166.791 44.4365H169.14V47.6545C168.778 47.7717 168.407 47.8586 168.031 47.9144C167.65 47.9712 167.266 47.9979 166.881 47.9943C166.468 48.0191 166.055 47.9552 165.669 47.807C165.283 47.6587 164.933 47.4296 164.643 47.1349C164.084 46.4533 163.802 45.5863 163.853 44.7064C163.829 44.2639 163.895 43.8211 164.048 43.4051C164.201 42.9892 164.437 42.609 164.743 42.2879C165.411 41.6851 166.292 41.3724 167.191 41.4184C167.844 41.4175 168.49 41.5501 169.09 41.8082L168.72 42.6776C168.234 42.4435 167.701 42.3206 167.161 42.3179C166.861 42.3037 166.562 42.3534 166.283 42.4637C166.004 42.574 165.751 42.7423 165.542 42.9575C165.128 43.4469 164.917 44.0763 164.952 44.7164C164.902 45.3592 165.095 45.9974 165.492 46.5053C165.69 46.7109 165.93 46.8717 166.196 46.9769C166.461 47.082 166.746 47.1291 167.031 47.1149C167.394 47.1068 167.756 47.0633 168.111 46.985V45.336H166.791V44.4365ZM177.235 43.4372C177.255 43.7252 177.207 44.0139 177.094 44.2797C176.981 44.5455 176.807 44.7807 176.585 44.9662C176.042 45.3538 175.383 45.5442 174.716 45.5059H174.047V47.8944H172.998V41.4984H174.846C175.481 41.4574 176.11 41.6298 176.635 41.9881C176.842 42.1658 177.004 42.3895 177.108 42.6412C177.212 42.8929 177.255 43.1655 177.235 43.4372V43.4372ZM174.047 44.6264H174.607C175.019 44.6574 175.431 44.5597 175.786 44.3466C175.916 44.2424 176.018 44.1074 176.082 43.9538C176.147 43.8002 176.172 43.6329 176.156 43.4671C176.167 43.3144 176.143 43.1611 176.086 43.019C176.029 42.8769 175.94 42.7498 175.826 42.6476C175.517 42.4406 175.147 42.3454 174.776 42.3778H174.047V44.6264ZM178.514 47.8944V41.4984H179.513V46.995H182.222V47.8944H178.514ZM187.339 47.8944L186.699 46.1155H184.251L183.631 47.8944H182.532L184.92 41.4784H186.059L188.458 47.8944H187.339ZM186.399 45.226L185.8 43.4871C185.8 43.3672 185.69 43.1873 185.61 42.9375L185.45 42.3878C185.361 42.7875 185.248 43.1814 185.11 43.5671L184.53 45.226H186.399ZM191.476 47.9044H190.397V42.4078H188.518V41.5084H193.395V42.4078H191.516L191.476 47.9044ZM195.374 47.9044H194.374V41.5084H197.982V42.3978H195.394V44.3966H197.812V45.286H195.394L195.374 47.9044ZM204.788 44.6964C204.838 45.5745 204.56 46.44 204.008 47.1249C203.724 47.423 203.379 47.6554 202.995 47.8056C202.612 47.9558 202.201 48.0203 201.79 47.9943C201.378 48.0203 200.966 47.9569 200.581 47.8086C200.197 47.6602 199.849 47.4304 199.561 47.1349C199.051 46.4259 198.777 45.5747 198.777 44.7014C198.777 43.8281 199.051 42.9768 199.561 42.2679C199.851 41.9758 200.199 41.7489 200.584 41.6024C200.968 41.4559 201.379 41.3931 201.79 41.4184C202.197 41.3948 202.605 41.4603 202.985 41.6105C203.365 41.7606 203.707 41.9918 203.988 42.2879C204.554 42.9589 204.843 43.8199 204.798 44.6964H204.788ZM199.901 44.6964C199.861 45.3322 200.029 45.9638 200.381 46.4953C200.549 46.7029 200.765 46.8668 201.01 46.9729C201.256 47.079 201.523 47.1243 201.79 47.1049C202.055 47.1238 202.322 47.0793 202.567 46.9751C202.812 46.8708 203.028 46.7098 203.199 46.5053C203.51 45.9604 203.674 45.3438 203.674 44.7164C203.674 44.0889 203.51 43.4723 203.199 42.9275C203.03 42.7205 202.814 42.5571 202.568 42.451C202.323 42.3449 202.056 42.2993 201.79 42.3179C201.522 42.2993 201.253 42.3449 201.006 42.4509C200.76 42.557 200.542 42.7203 200.371 42.9275C200.019 43.4478 199.851 44.0699 199.891 44.6964H199.901ZM207.206 44.4865H207.926C208.299 44.5204 208.673 44.4252 208.985 44.2167C209.097 44.1166 209.184 43.9928 209.241 43.8544C209.298 43.7161 209.323 43.5666 209.315 43.4172C209.33 43.267 209.304 43.1156 209.241 42.9786C209.178 42.8416 209.079 42.7239 208.955 42.6377C208.631 42.4615 208.264 42.3784 207.896 42.3978H207.196L207.206 44.4865ZM207.206 45.356V47.9044H206.157V41.5084H207.966C208.61 41.4639 209.252 41.6286 209.795 41.9781C210 42.1454 210.162 42.3601 210.267 42.6038C210.371 42.8475 210.415 43.1129 210.394 43.3772C210.398 43.7561 210.28 44.1261 210.057 44.4323C209.833 44.7384 209.517 44.9642 209.155 45.0761L210.954 47.9044H209.765L208.236 45.356H207.206ZM214.652 47.9044L212.793 42.5677C212.843 43.3572 212.863 44.1067 212.863 44.7963V47.9044H211.863V41.5084H213.382L215.161 46.5952L216.99 41.5084H218.469V47.9044H217.47V44.7364C217.47 44.4265 217.47 44.0068 217.47 43.4971C217.47 42.9874 217.47 42.6776 217.47 42.5777L215.551 47.9044H214.652Z" fill="#1E345D"/>
</svg>
