<svg xmlns="http://www.w3.org/2000/svg" viewBox="0 0 134.15 33.79"><defs><style>.cls-1{fill:#7bc625;}.cls-2{fill:#009d57;}.cls-3{fill:#00844d;}.cls-4{fill:#faab53;}.cls-5{fill:#0aa008;}</style></defs><g id="Layer_2" data-name="Layer 2"><g id="Layer_1-2" data-name="Layer 1"><path class="cls-1" d="M29.67,10.87A15.44,15.44,0,0,1,25,19.09a15.66,15.66,0,0,1-9,3.14A15.44,15.44,0,0,1,20.69,14,15.66,15.66,0,0,1,29.67,10.87Z"/><path class="cls-1" d="M13.66,22.23A15.44,15.44,0,0,0,9,14a15.66,15.66,0,0,0-9-3.14,15.44,15.44,0,0,0,4.68,8.22A15.66,15.66,0,0,0,13.66,22.23Z"/><path class="cls-2" d="M29.67,16.55A15.44,15.44,0,0,1,25,24.77a15.66,15.66,0,0,1-9,3.14,15.44,15.44,0,0,1,4.68-8.22A15.66,15.66,0,0,1,29.67,16.55Z"/><path class="cls-2" d="M13.66,27.91A15.44,15.44,0,0,0,9,19.69a15.66,15.66,0,0,0-9-3.14,15.44,15.44,0,0,0,4.68,8.22A15.66,15.66,0,0,0,13.66,27.91Z"/><path class="cls-3" d="M29.67,22.43A15.44,15.44,0,0,1,25,30.65a15.66,15.66,0,0,1-9,3.14,15.44,15.44,0,0,1,4.68-8.22A15.66,15.66,0,0,1,29.67,22.43Z"/><path class="cls-3" d="M13.66,33.79A15.44,15.44,0,0,0,9,25.57a15.66,15.66,0,0,0-9-3.14,15.44,15.44,0,0,0,4.68,8.22A15.66,15.66,0,0,0,13.66,33.79Z"/><path class="cls-4" d="M19.13,9.72a4.54,4.54,0,1,1-9.07,0C10.06,7.22,14.6,0,14.6,0S19.13,7.22,19.13,9.72Z"/><path class="cls-5" d="M47.23,14.22A3.51,3.51,0,0,1,47,15.53a3.26,3.26,0,0,1-.69,1,3.15,3.15,0,0,1-1.08.68,3.66,3.66,0,0,1-1.39.25H41.28V10.94h2.55a3.86,3.86,0,0,1,1.39.25,3.31,3.31,0,0,1,1.08.68,3.37,3.37,0,0,1,.69,1A3.51,3.51,0,0,1,47.23,14.22Zm-1.55,0a3,3,0,0,0-.13-.88,1.9,1.9,0,0,0-.36-.66,1.63,1.63,0,0,0-.58-.42,1.94,1.94,0,0,0-.78-.15h-1v4.22h1a1.94,1.94,0,0,0,.78-.15,1.42,1.42,0,0,0,.58-.42,1.9,1.9,0,0,0,.36-.66A3,3,0,0,0,45.68,14.22Z"/><path class="cls-5" d="M49.69,17.5H48.16V10.94h1.53Z"/><path class="cls-5" d="M54.08,16.4a3.15,3.15,0,0,0,.56,0,3.53,3.53,0,0,0,.46-.15v-1h-.65a.34.34,0,0,1-.23-.08.26.26,0,0,1-.08-.19V14.1h2.33v2.77a4,4,0,0,1-.52.32,3.66,3.66,0,0,1-.58.22,6.45,6.45,0,0,1-.66.12,5.86,5.86,0,0,1-.75,0,3.42,3.42,0,0,1-1.33-.25,3.38,3.38,0,0,1-1.06-.7,3.26,3.26,0,0,1-.7-1.07,3.43,3.43,0,0,1-.26-1.33,3.49,3.49,0,0,1,.25-1.35,3,3,0,0,1,1.79-1.75,4.23,4.23,0,0,1,2.2-.18,3.18,3.18,0,0,1,.66.18,3.25,3.25,0,0,1,.56.28,4.12,4.12,0,0,1,.45.35l-.44.67a.53.53,0,0,1-.15.15.36.36,0,0,1-.2.06.54.54,0,0,1-.28-.09,2.37,2.37,0,0,0-.34-.19,1.79,1.79,0,0,0-.32-.13,2,2,0,0,0-.35-.07,2.75,2.75,0,0,0-.42,0,1.92,1.92,0,0,0-.77.15,1.73,1.73,0,0,0-.58.42,2.13,2.13,0,0,0-.37.66,2.59,2.59,0,0,0-.13.86,2.93,2.93,0,0,0,.14.93,2.07,2.07,0,0,0,.4.68,1.7,1.7,0,0,0,.6.43A2.15,2.15,0,0,0,54.08,16.4Z"/><path class="cls-5" d="M59.15,17.5H57.62V10.94h1.53Z"/><path class="cls-5" d="M65,10.94v1.21H63.19V17.5H61.67V12.15H59.83V10.94Z"/><path class="cls-5" d="M71.12,17.5H70a.54.54,0,0,1-.33-.09.48.48,0,0,1-.18-.24L69.05,16H66.56l-.39,1.14a.45.45,0,0,1-.17.23.49.49,0,0,1-.32.1H64.49L67,10.94h1.56ZM66.91,15H68.7l-.6-1.79c0-.12-.08-.25-.14-.41s-.1-.32-.15-.5q-.07.29-.15.51c0,.16-.1.29-.14.41Z"/><path class="cls-5" d="M73.21,16.29h2.43V17.5h-4V10.94h1.52Z"/><path class="cls-5" d="M79.62,15.31V17.5H78.09V10.94h2.32a3.79,3.79,0,0,1,1.19.17,2.39,2.39,0,0,1,.82.45,1.77,1.77,0,0,1,.47.68,2.32,2.32,0,0,1,.15.84,2.67,2.67,0,0,1-.15.91,2,2,0,0,1-.48.7,2.35,2.35,0,0,1-.83.45,3.7,3.7,0,0,1-1.17.17Zm0-1.15h.79a1.1,1.1,0,0,0,.85-.28,1.12,1.12,0,0,0,.26-.8,1.29,1.29,0,0,0-.06-.4.89.89,0,0,0-.21-.32.93.93,0,0,0-.35-.21,1.7,1.7,0,0,0-.49-.07h-.79Z"/><path class="cls-5" d="M85.31,16.29h2.43V17.5H83.79V10.94h1.52Z"/><path class="cls-5" d="M94.75,17.5H93.57a.58.58,0,0,1-.33-.09.55.55,0,0,1-.18-.24L92.68,16h-2.5l-.38,1.14a.54.54,0,0,1-.18.23.49.49,0,0,1-.32.1H88.11l2.54-6.56h1.56ZM90.53,15h1.8l-.61-1.79-.13-.41a4.92,4.92,0,0,1-.16-.5q-.08.29-.15.51c0,.16-.1.29-.14.41Z"/><path class="cls-5" d="M96.28,11l.12,0a.3.3,0,0,1,.1.07l.11.12,3.12,3.94,0-.37c0-.12,0-.23,0-.34V10.94H101V17.5h-.79a.85.85,0,0,1-.3-.05.7.7,0,0,1-.23-.2l-3.09-3.91c0,.12,0,.23,0,.34s0,.21,0,.31V17.5H95.31V10.94h1Z"/><path class="cls-5" d="M106.86,10.94v1.21H105V17.5h-1.52V12.15h-1.84V10.94Z"/><path class="cls-5" d="M112.94,17.5h-1.17a.54.54,0,0,1-.33-.09.43.43,0,0,1-.18-.24L110.87,16h-2.49L108,17.17a.51.51,0,0,1-.17.23.49.49,0,0,1-.32.1h-1.19l2.54-6.56h1.56ZM108.73,15h1.79l-.6-1.79c0-.12-.08-.25-.14-.41s-.1-.32-.15-.5q-.07.29-.15.51c0,.16-.1.29-.14.41Z"/><path class="cls-5" d="M117.6,10.94v1.21h-1.84V17.5h-1.52V12.15h-1.85V10.94Z"/><path class="cls-5" d="M119.82,17.5h-1.53V10.94h1.53Z"/><path class="cls-5" d="M127.57,14.22a3.41,3.41,0,0,1-.25,1.32,3.18,3.18,0,0,1-.69,1.07,3.33,3.33,0,0,1-1.07.71,3.66,3.66,0,0,1-1.39.25,3.71,3.71,0,0,1-1.4-.25,3.38,3.38,0,0,1-1.08-.71,3.34,3.34,0,0,1-.69-1.07,3.6,3.6,0,0,1-.24-1.32A3.52,3.52,0,0,1,121,12.9a3.23,3.23,0,0,1,.69-1.07,3.2,3.2,0,0,1,1.08-.7,3.71,3.71,0,0,1,1.4-.26,3.66,3.66,0,0,1,1.39.26,3.18,3.18,0,0,1,1.07.71,3,3,0,0,1,.69,1.06A3.41,3.41,0,0,1,127.57,14.22Zm-1.56,0a3,3,0,0,0-.12-.88,2,2,0,0,0-.37-.66,1.61,1.61,0,0,0-.58-.41,1.86,1.86,0,0,0-.77-.14,2,2,0,0,0-.79.14,1.61,1.61,0,0,0-.58.41,1.83,1.83,0,0,0-.36.66,2.71,2.71,0,0,0-.13.88,2.67,2.67,0,0,0,.13.88,1.75,1.75,0,0,0,.36.66,1.5,1.5,0,0,0,.58.41,2.14,2.14,0,0,0,.79.14,2,2,0,0,0,.77-.14,1.5,1.5,0,0,0,.58-.41,1.92,1.92,0,0,0,.37-.66A3,3,0,0,0,126,14.22Z"/><path class="cls-5" d="M129.39,11l.12,0a.23.23,0,0,1,.1.07l.12.12,3.11,3.94,0-.37c0-.12,0-.23,0-.34V10.94h1.35V17.5h-.8a.84.84,0,0,1-.29-.05.85.85,0,0,1-.24-.2l-3.09-3.91c0,.12,0,.23,0,.34s0,.21,0,.31V17.5h-1.34V10.94h1Z"/><path class="cls-5" d="M42.8,26.11V28.3H41.28V21.74H43.6a3.83,3.83,0,0,1,1.19.17,2.25,2.25,0,0,1,.81.45,1.69,1.69,0,0,1,.48.68,2.32,2.32,0,0,1,.15.84,2.67,2.67,0,0,1-.15.91,1.89,1.89,0,0,1-.49.7,2.3,2.3,0,0,1-.82.45,3.7,3.7,0,0,1-1.17.17Zm0-1.15h.8a1.1,1.1,0,0,0,.85-.28,1.17,1.17,0,0,0,.26-.8,1.05,1.05,0,0,0-.07-.4.76.76,0,0,0-.2-.32.93.93,0,0,0-.35-.21,1.75,1.75,0,0,0-.49-.07h-.8Z"/><path class="cls-5" d="M48.5,27.08h2.43V28.3H47V21.74H48.5Z"/><path class="cls-5" d="M57.94,28.3H56.76a.56.56,0,0,1-.33-.09.55.55,0,0,1-.18-.24l-.38-1.14h-2.5L53,28a.54.54,0,0,1-.18.23.49.49,0,0,1-.32.1H51.3l2.54-6.56H55.4Zm-4.22-2.51h1.8L54.91,24c0-.12-.08-.25-.14-.41s-.1-.32-.15-.5q-.07.29-.15.51c0,.16-.1.29-.14.41Z"/><path class="cls-5" d="M62.59,21.74V23H60.75V28.3H59.23V23H57.38V21.74Z"/><path class="cls-5" d="M67.43,21.74v1.17H64.74v1.66H67v1.18H64.74V28.3H63.21V21.74Z"/><path class="cls-5" d="M74.55,25a3.41,3.41,0,0,1-.25,1.32,3.18,3.18,0,0,1-.69,1.07,3.33,3.33,0,0,1-1.07.71,4,4,0,0,1-2.79,0,3.38,3.38,0,0,1-1.08-.71A3.18,3.18,0,0,1,68,26.34,3.6,3.6,0,0,1,67.73,25,3.53,3.53,0,0,1,68,23.7a3.08,3.08,0,0,1,.69-1.07,3.2,3.2,0,0,1,1.08-.7,3.87,3.87,0,0,1,2.79,0,3.18,3.18,0,0,1,1.07.71,3,3,0,0,1,.69,1.06A3.41,3.41,0,0,1,74.55,25ZM73,25a2.71,2.71,0,0,0-.13-.88,1.75,1.75,0,0,0-.36-.66,1.61,1.61,0,0,0-.58-.41,1.86,1.86,0,0,0-.77-.14,2,2,0,0,0-.79.14,1.61,1.61,0,0,0-.58.41,1.75,1.75,0,0,0-.36.66,2.71,2.71,0,0,0-.13.88,2.67,2.67,0,0,0,.13.88,1.75,1.75,0,0,0,.36.66,1.61,1.61,0,0,0,.58.41,2.14,2.14,0,0,0,.79.14,2,2,0,0,0,.77-.14,1.61,1.61,0,0,0,.58-.41,1.75,1.75,0,0,0,.36-.66A2.67,2.67,0,0,0,73,25Z"/><path class="cls-5" d="M76.92,25.87V28.3H75.4V21.74h2.13a4.33,4.33,0,0,1,1.22.15,2.2,2.2,0,0,1,.81.41,1.52,1.52,0,0,1,.47.61,2.21,2.21,0,0,1,.14.78,2,2,0,0,1-.09.6,1.67,1.67,0,0,1-.25.52,1.86,1.86,0,0,1-.41.43,2.24,2.24,0,0,1-.57.31,2.9,2.9,0,0,1,.29.19,1.27,1.27,0,0,1,.23.28l1.39,2.28H79.39a.58.58,0,0,1-.55-.29l-1.09-1.9a.43.43,0,0,0-.17-.18.51.51,0,0,0-.27-.06Zm0-1h.61a1.6,1.6,0,0,0,.53-.08,1,1,0,0,0,.36-.22.79.79,0,0,0,.2-.33,1.29,1.29,0,0,0,.07-.4.86.86,0,0,0-.29-.68,1.29,1.29,0,0,0-.87-.24h-.61Z"/><path class="cls-5" d="M84.89,25.66c.06.12.11.25.16.38,0-.14.11-.26.17-.39s.11-.24.17-.36L87.07,22a.45.45,0,0,1,.1-.13l.1-.07a.27.27,0,0,1,.13,0h1.34V28.3H87.4V24.53c0-.18,0-.38,0-.6L85.69,27.3a.57.57,0,0,1-.22.24.55.55,0,0,1-.31.08H85a.53.53,0,0,1-.31-.08.52.52,0,0,1-.22-.24l-1.75-3.37,0,.31c0,.11,0,.2,0,.29V28.3H81.37V21.75H82.7a.25.25,0,0,1,.13,0,.41.41,0,0,1,.11.07A.73.73,0,0,1,83,22l1.69,3.33A4,4,0,0,1,84.89,25.66Z"/></g></g></svg>